<svg width="697" height="234" viewBox="0 0 697 234" fill="none" xmlns="http://www.w3.org/2000/svg">
<g clip-path="url(#clip0_6_287)">
<path d="M571.613 60.2286V14.229H562.23L543.285 45.5994V14.229H533.99V60.2286H543.374L562.23 29.1027V60.2286H571.613ZM540.728 5.64713C544.217 8.24562 548.451 9.64917 552.802 9.64917C557.152 9.64917 561.387 8.24562 564.876 5.64713L561.051 0C558.676 1.79619 555.78 2.76812 552.802 2.76812C549.824 2.76812 546.927 1.79619 544.552 0L540.728 5.64713Z" fill="#1D1D1B"/>
<path d="M268.652 44.8658V29.0805C268.652 19.0758 263.315 13.3842 253.398 13.3842C249.662 13.3842 243.236 14.8738 240.612 17.0303C239.888 15.4126 238.588 14.1213 236.966 13.4064L231.073 18.8312C231.881 19.5409 232.504 20.4351 232.891 21.4377C233.279 22.4403 233.418 23.5216 233.297 24.5895V75.0579H242.858V58.9613C245.933 60.2355 249.225 60.9073 252.553 60.9401C261.447 60.9401 268.563 55.3152 268.563 44.9547L268.652 44.8658ZM258.979 45.8662C258.979 49.8904 254.999 52.3138 251.352 52.3138C248.375 52.2523 245.47 51.384 242.947 49.8015V25.0786C245.461 23.0097 248.588 21.8294 251.842 21.7214C252.746 21.6858 253.649 21.831 254.497 22.1486C255.344 22.4661 256.12 22.9496 256.779 23.5708C257.437 24.1919 257.965 24.9383 258.332 25.766C258.698 26.5937 258.895 27.4863 258.912 28.3913L258.979 45.8662Z" fill="#1D1D1B"/>
<path d="M354.815 60.2286V14.1178H323.307V42.6425C323.307 48.4674 319.683 53.3142 314.613 53.4476C313.154 53.5582 311.711 53.0871 310.599 52.1374C309.486 51.1876 308.795 49.8362 308.676 48.3785V28.9915C308.676 19.4537 303.606 13.4286 292.866 13.4286C286.888 13.3067 281.107 15.5616 276.79 19.6982L281.837 25.8789C284.598 23.3143 288.17 21.7963 291.932 21.588C295.112 21.588 299.115 22.9887 299.115 27.2796V32.1931H291.288C280.17 32.1931 275.389 39.3075 275.389 46.7778C275.389 54.248 279.325 60.9845 290.621 60.9845C294.59 60.8289 298.37 59.2506 301.271 56.5379C303.068 58.2432 305.206 59.5473 307.544 60.3637C309.883 61.1801 312.368 61.4902 314.835 61.2735C325.708 60.9178 332.624 55.0483 332.401 42.3757V21.9882H345.543V60.2286H354.815ZM299.226 49.6458C298.051 50.9819 296.543 51.9838 294.857 52.5499C293.17 53.1161 291.363 53.2263 289.62 52.8695C288.377 52.5482 287.272 51.8329 286.471 50.8308C285.669 49.8288 285.214 48.5939 285.173 47.3113C285.107 46.3621 285.246 45.4098 285.579 44.5184C285.912 43.6271 286.431 42.8172 287.103 42.1434C287.775 41.4695 288.584 40.9471 289.474 40.6114C290.364 40.2757 291.316 40.1343 292.266 40.1969H299.226V49.6458Z" fill="#1D1D1B"/>
<path d="M481.269 60.2731L464.17 35.9282L480.158 14.229H469.262L457.299 32.2597H451.407V14.1178H442.046V60.2731H451.229L451.318 40.1524H457.144L470.352 60.2731H481.269Z" fill="#1D1D1B"/>
<path d="M364.599 60.4287V14.1178H374.138V29.6807H380.92C392.038 29.6807 398.063 36.5284 397.974 44.3988C397.885 52.2693 392.327 60.2508 381.031 60.2508L364.599 60.4287ZM374.138 52.4471H382.187C386.412 52.4471 388.08 47.8227 388.08 44.7323C388.165 43.8739 388.075 43.0071 387.815 42.1846C387.554 41.3621 387.129 40.6012 386.566 39.9481C386.002 39.2951 385.311 38.7635 384.536 38.3858C383.76 38.0082 382.915 37.7923 382.054 37.7513H374.138V52.4471Z" fill="#1D1D1B"/>
<path d="M435.953 55.0484L432.017 48.1118C426.614 51.9358 423.345 53.0474 420.633 53.0474C416.808 53.0474 412.984 51.091 412.984 47.0891V29.3028C412.984 25.1898 416.786 22.2995 421.189 22.2995C424.813 22.5923 428.187 24.2632 430.617 26.9684L435.575 20.6765C433.726 18.3485 431.351 16.492 428.645 15.2592C425.94 14.0264 422.98 13.4524 420.01 13.5843C410.56 13.5843 403.267 19.387 403.267 29.3695V46.6444C403.267 56.4713 410.849 61.0512 420.188 61.0512C425.993 61.0064 431.589 58.8758 435.953 55.0484Z" fill="#1D1D1B"/>
<path d="M524.295 60.2286V14.229H514.934L495.967 45.5995V14.229H486.695V60.2286H495.967H496.056L514.934 29.0138V60.2286H524.295Z" fill="#1D1D1B"/>
<path d="M230.829 0H220.133L211.884 27.4353C211.728 27.9466 211.528 28.5024 211.417 29.036C211.306 29.5696 211.172 30.0365 211.128 30.4144C211.083 30.7924 211.128 30.9925 211.128 31.0147C211.128 31.037 211.128 30.7924 211.128 30.4367C211.128 30.081 210.95 29.6141 210.839 29.1027C210.741 28.5612 210.584 28.0319 210.372 27.5242L198.165 0H187.291L206.836 42.9093L205.591 46.0218C204.035 49.4679 199.899 53.2697 192.539 53.581L193.717 61.0067C204.546 61.2513 211.662 56.449 214.419 48.4007L230.829 0Z" fill="#1D1D1B"/>
<path d="M697.022 138.243V92.2438H687.639L668.694 123.614V92.2438H659.444V138.243H668.827L687.683 107.118V138.243H697.022ZM666.115 83.6619C669.604 86.2604 673.838 87.664 678.189 87.664C682.539 87.664 686.773 86.2604 690.262 83.6619L686.438 78.0148C684.066 79.8092 681.174 80.7802 678.2 80.7802C675.226 80.7802 672.333 79.8092 669.961 78.0148L666.115 83.6619Z" fill="#1D1D1B"/>
<path d="M649.727 92.2438H640.344V138.243H649.727V92.2438Z" fill="#1D1D1B"/>
<path d="M601.809 138.466V92.2438H611.37V107.807H618.041C629.27 107.807 635.207 114.632 635.096 122.503C634.985 130.373 629.47 138.355 618.175 138.355L601.809 138.466ZM611.37 130.484H619.42C623.645 130.484 625.312 125.86 625.312 122.769C625.391 121.91 625.296 121.044 625.032 120.223C624.768 119.402 624.341 118.643 623.776 117.991C623.211 117.339 622.52 116.807 621.745 116.429C620.969 116.05 620.126 115.833 619.264 115.788H611.37V130.484Z" fill="#1D1D1B"/>
<path d="M241.213 122.992V107.118C241.213 97.1128 236.61 91.4212 226.715 91.4212C224.054 91.4284 221.438 92.1091 219.111 93.3999V84.7291H209.549V93.3999C207.217 92.1018 204.592 91.4208 201.922 91.4212C192.027 91.4212 187.425 97.135 187.425 107.118V122.992C187.425 133.352 193.717 138.977 202.678 138.977C205.099 138.91 207.463 138.229 209.549 136.998V153.095H219.177V136.998C221.255 138.229 223.612 138.91 226.026 138.977C234.92 138.977 241.28 133.352 241.28 122.992H241.213ZM209.549 102.671V126.638C208.924 127.507 208.081 128.196 207.105 128.637C206.13 129.078 205.056 129.255 203.99 129.15C203.107 129.205 202.222 129.079 201.39 128.78C200.557 128.481 199.794 128.016 199.147 127.413C198.5 126.809 197.982 126.081 197.626 125.271C197.27 124.461 197.082 123.587 197.075 122.703V105.117C197.009 104.25 197.126 103.38 197.418 102.562C197.71 101.744 198.171 100.996 198.771 100.367C199.37 99.7383 200.095 99.2425 200.899 98.9117C201.702 98.5809 202.566 98.4225 203.434 98.4467C204.6 98.4294 205.755 98.6741 206.813 99.1629C207.871 99.6516 208.807 100.372 209.549 101.27V102.671ZM231.563 124.059C231.555 124.943 231.368 125.817 231.011 126.627C230.655 127.437 230.138 128.166 229.491 128.769C228.844 129.372 228.081 129.837 227.248 130.136C226.415 130.435 225.53 130.561 224.647 130.506C223.585 130.614 222.513 130.438 221.54 129.996C220.568 129.555 219.729 128.864 219.111 127.994V103.96C219.852 103.061 220.787 102.34 221.846 101.851C222.904 101.362 224.059 101.118 225.225 101.137C226.092 101.116 226.954 101.277 227.754 101.609C228.555 101.941 229.277 102.437 229.874 103.066C230.471 103.694 230.93 104.441 231.221 105.257C231.512 106.074 231.628 106.942 231.563 107.807V124.059Z" fill="#1D1D1B"/>
<path d="M284.061 132.908L280.014 125.682C276.466 128.781 271.939 130.528 267.229 130.618C262.648 130.618 259.135 128.105 259.135 123.147V118.879H283.038V107.762C283.038 96.0901 275.656 91.5991 266.762 91.5991C256.6 91.5991 249.484 96.846 249.484 108.318V123.636C249.484 133.908 256.155 139.066 266.495 139.066C274.055 139.066 278.635 136.62 284.061 132.996V132.908ZM273.388 105.272V111.008H259.201V105.939C259.201 101.826 262.715 99.4917 266.828 99.4917C269.296 99.4917 273.388 101.181 273.388 105.272Z" fill="#1D1D1B"/>
<path d="M328.977 130.506V92.2661H297.38V117.678C297.38 123.481 294 130.351 288.908 130.506H288.108V149.538H297.202V138.421H324.93V149.538H334.269V130.506H328.977ZM302.761 130.506C305.437 126.911 306.752 122.484 306.475 118.012V100.225H319.638V130.573L302.761 130.506Z" fill="#1D1D1B"/>
<path d="M592.136 138.266V92.2438H582.753V110.23H563.808V92.2438H554.514V138.266H563.808V118.1H582.753V138.266H592.136Z" fill="#1D1D1B"/>
<path d="M418.231 123.081V107.118C418.231 97.135 412.872 91.4212 402.977 91.4212C399.242 91.4212 392.816 92.9108 390.192 95.0674C389.467 93.4496 388.168 92.1583 386.545 91.4434L380.653 96.8905C381.457 97.5979 382.078 98.4885 382.466 99.4869C382.853 100.485 382.993 101.562 382.876 102.627V153.095H392.616V136.998C395.69 138.279 398.981 138.958 402.31 138.999C411.205 138.999 418.32 133.374 418.32 122.992L418.231 123.081ZM408.559 124.081C408.559 128.105 404.556 130.529 400.91 130.529C397.97 130.448 395.106 129.581 392.616 128.016V103.227C395.12 101.14 398.251 99.9499 401.51 99.8474C402.415 99.8118 403.317 99.957 404.165 100.275C405.013 100.592 405.789 101.076 406.447 101.697C407.106 102.318 407.634 103.064 408 103.892C408.366 104.72 408.564 105.612 408.581 106.517L408.559 124.081Z" fill="#1D1D1B"/>
<path d="M504.483 138.355V92.2438H472.886V120.813C472.886 126.616 469.262 131.462 464.192 131.596C462.734 131.706 461.291 131.235 460.178 130.286C459.066 129.336 458.375 127.984 458.255 126.527V107.118C458.255 97.5797 453.186 91.5546 442.446 91.5546C436.47 91.4425 430.691 93.696 426.369 97.8242L431.417 104.005C434.184 101.45 437.752 99.9333 441.512 99.714C444.692 99.714 448.694 101.115 448.694 105.406V110.319H440.867C429.749 110.319 424.969 117.434 424.969 124.904C424.969 132.374 428.904 139.133 440.2 139.133C444.169 138.975 447.948 137.397 450.851 134.686C452.644 136.396 454.781 137.703 457.121 138.52C459.46 139.337 461.947 139.644 464.415 139.422C475.288 139.066 482.203 133.219 481.981 120.524V100.181H495.122V138.399L504.483 138.355ZM448.694 127.772C445.159 132.329 434.686 132.93 434.53 125.548C434.468 124.601 434.609 123.651 434.943 122.763C435.277 121.874 435.798 121.067 436.469 120.395C437.141 119.724 437.948 119.204 438.837 118.869C439.726 118.535 440.675 118.394 441.623 118.456H448.694V127.772Z" fill="#1D1D1B"/>
<path d="M514.178 138.466V92.2438H523.806V107.807H530.477C541.706 107.807 547.643 114.632 547.554 122.503C547.465 130.373 541.906 138.355 530.61 138.355L514.178 138.466ZM523.74 130.484H531.767C535.991 130.484 537.659 125.86 537.659 122.769C537.741 121.91 537.648 121.042 537.385 120.22C537.123 119.397 536.695 118.637 536.13 117.984C535.565 117.331 534.872 116.8 534.096 116.423C533.319 116.045 532.474 115.83 531.611 115.788H523.806L523.74 130.484Z" fill="#1D1D1B"/>
<path d="M374.827 132.908L370.802 125.682C367.254 128.781 362.727 130.528 358.017 130.618C353.436 130.618 349.901 128.105 349.901 123.147V118.879H373.827V107.762C373.827 96.0901 366.422 91.5991 357.55 91.5991C347.366 91.5991 340.251 96.846 340.251 108.318V123.636C340.251 133.908 346.921 139.066 357.261 139.066C364.843 139.066 369.424 136.62 374.827 132.996V132.908ZM364.176 105.272V111.008H349.901V105.939C349.901 101.826 353.436 99.4917 357.55 99.4917C360.129 99.4917 364.243 101.181 364.243 105.272H364.176Z" fill="#1D1D1B"/>
<path d="M226.871 170.392H216.487L207.059 206.165C207.033 203.948 206.688 201.747 206.036 199.628L198.009 170.392H187.425C187.425 170.392 199.743 209.388 202.656 216.192C201.233 222.239 197.942 226.241 190.96 226.908L191.872 233.889C202.456 233.889 208.482 228.197 210.661 221.149L226.871 170.392Z" fill="#1D1D1B"/>
<path d="M270.475 216.414V170.392H261.091V188.378H242.147V170.392H232.852V216.414H242.147V196.249H261.091V216.414H270.475Z" fill="#1D1D1B"/>
<path d="M317.77 216.414V170.392H308.387L289.442 201.762V170.392H280.17V216.414H289.442H289.531L308.387 185.177V216.414H317.77Z" fill="#1D1D1B"/>
<path d="M327.465 216.414V170.392H343.897C355.193 170.392 358.728 177.284 358.573 182.531C358.601 184.443 358.087 186.324 357.092 187.956C356.097 189.589 354.66 190.907 352.947 191.758C355.246 192.515 357.243 193.987 358.647 195.959C360.051 197.93 360.788 200.299 360.752 202.718C360.752 209.388 355.838 216.414 344.542 216.414H327.465ZM337.026 178.374V188.312H343.897C344.555 188.375 345.219 188.291 345.841 188.066C346.463 187.84 347.026 187.479 347.49 187.008C347.955 186.538 348.308 185.969 348.525 185.345C348.742 184.72 348.817 184.055 348.745 183.398C348.781 182.755 348.686 182.111 348.466 181.506C348.246 180.9 347.905 180.346 347.464 179.876C347.023 179.406 346.492 179.031 345.902 178.773C345.311 178.514 344.675 178.379 344.031 178.374H337.026ZM337.026 208.41H345.054C345.878 208.417 346.695 208.25 347.452 207.922C348.208 207.593 348.887 207.109 349.444 206.501C350.002 205.893 350.426 205.175 350.688 204.394C350.951 203.612 351.046 202.784 350.968 201.963C351.021 201.165 350.899 200.365 350.611 199.619C350.322 198.873 349.874 198.199 349.298 197.645C348.722 197.09 348.032 196.667 347.276 196.407C346.52 196.147 345.716 196.055 344.92 196.138H337.026V208.41Z" fill="#1D1D1B"/>
<path d="M536.792 170.392V178.285H548.443L548.421 216.525H549.022H557.782H558.405L558.383 178.285H570.012V170.392H536.792Z" fill="#1D1D1B"/>
<path d="M613.238 170.392V178.285H624.868V216.525H625.468H634.229H634.829V178.285H646.458V170.392H613.238Z" fill="#1D1D1B"/>
<path d="M529.854 216.414V170.392H520.493L501.526 201.762V170.392H492.254V216.414H501.526H501.615L520.493 185.177V216.414H529.854Z" fill="#1D1D1B"/>
<path d="M445.27 201.118V185.244C445.27 175.239 439.933 169.547 430.038 169.547C425.528 169.607 421.116 170.865 417.253 173.193C416.528 171.576 415.228 170.284 413.606 169.569L407.714 175.016C408.518 175.724 409.139 176.614 409.526 177.613C409.913 178.611 410.054 179.688 409.937 180.752V231.221H419.499V215.147C422.574 216.421 425.865 217.092 429.193 217.125C438.088 217.125 445.181 211.5 445.181 201.118H445.27ZM435.619 202.118C435.619 206.142 431.617 208.566 427.993 208.566C425.015 208.504 422.11 207.636 419.588 206.053V181.264C422.091 179.179 425.224 177.996 428.482 177.907C429.386 177.871 430.289 178.016 431.137 178.334C431.985 178.651 432.76 179.135 433.419 179.756C434.077 180.377 434.605 181.124 434.972 181.951C435.338 182.779 435.536 183.671 435.553 184.577L435.619 202.118Z" fill="#1D1D1B"/>
<path d="M486.161 211.122L482.225 204.186C476.822 208.01 473.531 209.144 470.841 209.144C467.016 209.144 463.192 207.165 463.192 203.163V185.377C463.27 184.378 463.545 183.405 464 182.513C464.455 181.62 465.081 180.826 465.843 180.176C466.605 179.525 467.488 179.031 468.441 178.722C469.393 178.413 470.398 178.295 471.397 178.374C475.021 178.666 478.395 180.337 480.825 183.042L485.783 176.773C483.935 174.442 481.561 172.582 478.855 171.346C476.15 170.109 473.19 169.531 470.218 169.658C460.768 169.658 453.475 175.461 453.475 185.444V202.718C453.475 212.523 461.057 217.103 470.396 217.103C476.197 217.058 481.79 214.937 486.161 211.122Z" fill="#1D1D1B"/>
<path d="M609.503 210.945L605.456 203.719C601.911 206.826 597.383 208.581 592.67 208.677C588.09 208.677 584.576 206.142 584.576 201.184V196.916H608.48V185.799C608.48 174.127 601.097 169.636 592.203 169.636C582.019 169.636 574.926 174.883 574.926 186.355V201.696C574.926 211.967 581.597 217.103 591.936 217.103C599.497 217.103 604.077 214.658 609.503 211.034V210.945ZM598.829 183.309V189.045H584.576V183.976C584.576 179.863 588.09 177.529 592.203 177.529C594.738 177.529 598.829 179.218 598.829 183.309Z" fill="#1D1D1B"/>
<path d="M402.155 210.945L398.108 203.719C394.563 206.826 390.035 208.581 385.322 208.677C380.742 208.677 377.206 206.142 377.206 201.184V196.916H401.132V185.799C401.132 174.127 393.727 169.636 384.855 169.636C374.671 169.636 367.556 174.883 367.556 186.355V201.696C367.556 211.967 374.227 217.103 384.589 217.103C392.149 217.103 396.729 214.658 402.155 211.034V210.945ZM391.482 183.309V189.045H377.206V183.976C377.206 179.863 380.742 177.529 384.855 177.529C387.39 177.529 391.482 179.218 391.482 183.309Z" fill="#1D1D1B"/>
<path fill-rule="evenodd" clip-rule="evenodd" d="M0 9.40447C18.9893 9.40447 27.0164 22.7441 35.5771 36.8397L105.442 156.608C108.733 162.588 111.979 169.792 111.89 176.617C111.623 194.226 88.7427 200.673 75.0677 201.362C65.1045 201.708 55.2004 199.697 46.1613 195.493L40.6246 202.718C43.871 216.547 56.6565 233.311 74.245 233.177C104.775 232.977 120.807 205.053 133.081 182.309L155.828 140.2L89.8322 26.9239C83.7174 16.7857 93.7235 9.4267 104.374 9.38224L106.798 0H2.44593L0 9.40447Z" fill="url(#paint0_linear_6_287)"/>
</g>
<defs>
<linearGradient id="paint0_linear_6_287" x1="77.9139" y1="-57.8942" x2="77.9139" y2="291.005" gradientUnits="userSpaceOnUse">
<stop stop-color="#E6007E"/>
<stop offset="0.24" stop-color="#E50051"/>
<stop offset="0.48" stop-color="#E30613"/>
<stop offset="0.74" stop-color="#F39200"/>
<stop offset="1" stop-color="#FFED00"/>
</linearGradient>
<clipPath id="clip0_6_287">
<rect width="697" height="234" fill="white"/>
</clipPath>
</defs>
</svg>
